<svg width="0" height="0" class="hidden">
  <symbol xmlns="http://www.w3.org/2000/svg" version="1.0" viewBox="0 0 300 133" id="Sulpayki-logo">
    <g stroke="null">
      <path d="M174.588 15.718c-5.2 1.7-10.1 5.4-12.9 10-3.2 4.9-4.1 10.3-1.4 8.1.8-.7 1.5-1.6 1.5-2.1s1.2-2.8 2.6-5c4.5-7.2 15.7-10.7 24.5-7.8 4.2 1.4 7.2 4.1 11.1 9.7 3.3 4.8 4.3 4.9 3.3.3-.7-3.3-6.4-9.3-11.1-11.7-3.5-1.8-13.9-2.7-17.6-1.5z"></path>
      <path d="M210.042 27.752c-1.6.8-2.8 1.9-2.8 2.4 0 .6-1 1.1-2.2 1.1-1.7.1-1.9.2-.5.6.9.2 1.7.9 1.7 1.4 0 .5-.8.9-1.7.9-1 0-3.6.9-5.9 1.9l-4.1 1.9-2.7-2.9c-3-3.2-4.4-3.5-6.8-1.7-2.1 1.7-4.2 8.2-2.8 8.6 1.6.6 1.2 2.7-1.1 4.8-2 1.8-2.1 1.8-4.7-1.4-1.5-1.8-3.2-3.2-3.9-3.2-.6 0-2.7-.9-4.5-1.9-11.6-6.9-33.3-6.4-44.2.8-2 1.3-3.9 1.8-5.8 1.4-3.6-.7-6 1.2-5.2 4.3.4 1.6-.3 3.4-2.2 6.1-1.6 2.1-2.9 3.9-3 4.1-.1.2-2-.9-4.3-2.3-3.6-2.4-4-3.2-4.3-7.3l-.3-4.7-7.9-.1c-6.9 0-7.9.2-8.6 2-.7 2-.7 2-1.8 0-.9-1.8-2-2-8.3-1.9-5.4.1-7.5.5-8.4 1.8-1.5 2.1-2.5 2.2-2.5.3 0-1-1.9-1.5-7.2-1.8-9.7-.6-10-.5-9.7 5.3.2 4.2-.1 5.1-2.4 6.9-1.5 1.2-2.7 1.8-2.7 1.5 0-.4 1-1.4 2.1-2.4l2.1-1.7-3.6-5.7c-2-3.1-3.8-5.7-3.9-5.7-.2 0-2.6.7-5.4 1.5-9.2 2.7-13.3 11.4-8.3 17.8 2.7 3.4 2.5 5-1 7-3.7 2.3-3.7 4 0 9.9 3.2 5.1 4.3 5.5 9.3 3.5 2.5-1.1 20.5-1.4 88.5-1.5l85.3-.2-.7 3.7c-.3 2.1-1.4 4.3-2.3 5-4.1 3.1-4.4 3.5-2.9 4.9 2.3 2.3 11.9 3.6 17.4 2.4 6.2-1.4 7.7-2.6 6.3-5.1-.5-1-1.5-1.9-2.2-1.9-3-.1-3.7-1.5-2.5-5.3l1.1-3.7H284.242l-.2-18.2-.3-18.3h-7.8c-4.3-.1-8.1.3-8.3.7-.3.4-1.4.4-2.4-.2-1-.5-3.2-1-4.8-1-1.7 0-5-1.1-7.3-2.5-6-3.4-19.1-7.5-24.1-7.5-2.3 0-3.8-.3-3.5-.7.9-.9-8.2-5.3-10.8-5.3-1.1.1-3.2.8-4.7 1.6zm7.3 2c1.7.8 3.7 3 4.5 4.7l1.5 3.2-.6-3.5c-.5-3.2-.4-3.4 1.1-1.8 2.4 2.4 2.8 9.3 1 18.8-1.9 10.1-7.6 29-8.8 29-1.2 0-1-1 1.7-9 1.4-4 2.5-7.8 2.4-8.4 0-.6-2 4.5-4.4 11.3-2.5 6.9-4.3 12.7-4 12.9.2.3.8-.4 1.2-1.4 1.7-4.5 2.8-4 2.8 1.3v5.3h-5c-6 0-8.1-1.1-7.1-3.6 2.7-6.8 5-34.3 3.8-44.4-1-8.2.1-12.9 3.5-14.9 2.4-1.4 2.9-1.4 6.4.5zm18.9 5.5c9.6 2.1 21.1 7.9 15.7 7.9-1.5 0-3.7 4.1-3.7 6.9 0 .9-.7 2.6-1.5 3.7-1.4 1.8-1.5 1.5-1.3-3.7.1-3-.2-6-.6-6.7-.4-.6-3.2-1.1-6.9-1-10.5.1-10-.5-9.6 11.2.1 5.5.2 13.4.1 17.3l-.2 7.3h-4.5c-3.3 0-4.5-.4-4.5-1.5 0-.8.4-1.5 1-1.5.5 0 .7-.6.4-1.4-.3-.8-.1-1.7.5-2.1.6-.3 1.1-1.7 1.1-3.1 0-1.3.4-2.4.9-2.4s.7-.8.4-1.9c-.3-1 0-2.2.6-2.5.5-.4.8-1.3.4-2.1-.3-.9 0-2.1.6-2.9.6-.7.8-1.6.5-1.9-.4-.3-.3-1.4.1-2.4.7-1.7 1.3-6.9 1.8-14.1.1-1.7-.1-3.2-.5-3.2-.5 0-.8-.5-.8-1 0-1.1.4-1 10 1.1zm-45.2.9c1.2 1.3 2.2 4.3 2.6 7.6.8 7.2 3.9 13 8.1 15.5 6.5 3.9 5.5 7.9-1.6 5.8-6.3-1.9-12.3-8.1-14.3-14.8-3.5-12.1-.5-20.2 5.2-14.1zm14.2 0c0 .5-.7 1-1.6 1-.8 0-1.2.5-.9 1 .4.6 1 .8 1.5.5.4-.2 1 .6 1.2 2 .4 1.8.1 2.5-1.1 2.6-1.3.1-1.3.2.2.6.9.2 1.7 1.2 1.7 2 0 .9-.8 2.2-1.7 2.9-1.7 1.3-1.7 1.3 0 1.4 2 0 2.4 4 .5 4.1-1 0-1 .2 0 .6 1.9.8 1.5 4.3-.6 4.3-2.2 0-6.7-4.5-5.8-5.8.3-.6-.1-1.3-1-1.6-1-.4-1.3-1.3-.9-2.6.4-1.1.2-2-.4-2-.6 0-1.1-.7-1.1-1.5s.5-1.5 1.1-1.5c.6 0 .3-.7-.5-1.6-.9-.8-1.6-1.9-1.6-2.3 0-.6 7.9-4.3 10.8-5 .1-.1.2.3.2.9zm-45.4 2.5c2.7.8 5.7 2 6.7 2.7 1.5 1.1 1.2 1.3-2.5 1.3h-4.2l-6.5 17.8-6.6 17.7-8-.2c-7.4-.3-8-.5-8.3-2.6-.3-1.9.1-2.2 3-2.2 5.2-.1 11.4-3.4 13.4-7.2 2.5-4.8 2.4-12.9-.2-16.5-3.5-4.7-8.1-6.8-15.1-6.8-7.2 0-6.9-.9 1.3-3.5 7.3-2.3 20.1-2.6 27-.5zm-121.3 9.2 2.8 4.6-2.1 2.2-2.1 2.3 2 4.1c4 7.7 2.3 12.4-5.9 16.6-6.9 3.5-8.1 3.3-11.2-2.3l-2.7-4.7 3-1.7c3.7-2.2 4.6-4.5 2.9-7.2-3.6-5.6-4-7.2-2.9-10.5 1.2-3.4 7.6-7.4 12.9-8 .3 0 1.8 2 3.3 4.6zm21.2 8.1c0 8.6.3 11.5 1.4 12.1 3.4 2.2 4.1.2 4.1-12v-11.9h14.2l-.7 14.2c-.8 15.8-1.6 18.2-6.6 19.2-5.2 1-18.6.7-21.3-.5-3.7-1.7-4.6-5.7-4.6-20.1v-12.9l6.8.3 6.7.3v11.3zm37.5.3v12.1l7-.7c7-.7 7-.7 7 1.8 0 1.3-.3 3.9-.6 5.6l-.6 3.1h-25.6l-.4-16.3c-.3-8.9-.3-16.5-.1-17 .2-.4 3.3-.7 6.9-.7h6.4v12.1zm42.5-10.7c5.2 2.2 7.7 6.9 7.2 13.4-.3 4.3-1 5.9-3.5 8.5-2.6 2.6-4 3.1-9.2 3.5l-6.2.5.6 3.3.7 3.3h-14.8l.1-17 .1-16.9h10.8c7.1 0 11.9.5 14.2 1.4zm37.8 6.3c2.9 6.6 9.7 24.5 9.7 25.9 0 .2-3.4.4-7.5.4-6 0-7.5-.3-7.5-1.5 0-2.1-7.9-2.1-9.4.1-.9 1.1-2.7 1.4-7.8 1.2l-6.7-.3 5.8-15.1c3.2-8.3 6-15.8 6.4-16.7.5-1.4 2-1.7 7-1.7h6.4l3.6 7.7zm66.7-1.7c0 4.6.3 6 1.4 6 1.8 0 2.7-1.3 4.6-7l1.5-4.5 6.9-.3c5.6-.2 6.7 0 5.9 1-.6.7-1.4 2.9-1.8 4.8-.4 1.9-1.8 5.2-3.2 7.4-2.4 3.7-2.4 3.9-.9 8 .9 2.4 2.7 5.8 4.1 7.6 1.3 1.8 2.2 3.7 1.9 4.1-.3.5-3.6.9-7.3.9h-6.7l-3.2-6.3-3.1-6.2-.1 6.2v6.3h-14v-34h14v6zm38 11v17h-13.8l.1-17v-17h13.7v17zm-218.4 4.6c-.3.8-1 1.2-1.6.9-1.2-.7-1.4-17.8-.2-18.9.9-1 2.6 15.9 1.8 18zm18.4-3.1v15.5h-3.2c-3.1 0-3.1 0-1.2-2.1 1.6-1.8 1.9-4 2.2-15.5.2-7.4.8-13.4 1.3-13.4s.9 6.7.9 15.5zm101.7-13.5c-.3 1.1-.1 2 .5 2s.8.9.5 1.9c-.3 1.2.1 2.2.9 2.5.8.3 1.4 1.1 1.4 1.8s.9 1.9 2 2.6c1.2.7 1.8 1.7 1.5 2.2-.3.6 0 1 .7 1 2.8 0 13.3 5 13.6 6.4.2.9-.2 1.6-.8 1.6-.9 0-.9.5.1 1.7s1.1 1.7.2 2c-.7.2-.9 1.1-.6 1.9.4 1.1-.9 1.4-7 1.4h-7.6l-1.9-5.3c-1.1-2.8-2.3-6.3-2.7-7.7-.4-1.4-1.8-5.1-3.2-8.3-2.5-5.5-2.5-5.8-.8-7.7 2.3-2.6 3.9-2.6 3.2 0zm83.2 14.7c-.2 6.2-.6 11.3-.9 11.3-.3 0-2.2-3.1-4.3-6.9-3.7-6.8-3.7-6.8-1.7-8.6 1.1-1 2.5-3.5 3.2-5.7.9-3.1 1.4-3.6 2.5-2.6 1.1.9 1.4 3.7 1.2 12.5zm-154.1 2c-.1 7.5-.3 10-.5 6l-.4-6.7-6.4.6-6.5.7v-6.2c0-6.7-.1-6.7 5.6-2.4l3.2 2.4 2.2-3.6c1.2-1.9 2.4-3.5 2.6-3.5.2 0 .3 5.7.2 12.7zm-67.8-1.4c0 6.8.4 9.9 1.6 11.5 1.5 2.2 1.5 2.2-4.1 2.2h-5.7l2.5-3c3.7-4.3 4.3-8.3 1.9-12.8-1.9-3.7-1.9-3.7.2-5.4 1.2-.9 2.4-1.7 2.9-1.8.4 0 .7 4.2.7 9.3z"></path>
      <path d="M215.388 37.018c-.9 3.7-.7 10.8.4 10.8.6 0 1-2.2 1-4.9s.3-5.6.6-6.5c.3-.9.2-1.6-.4-1.6-.5 0-1.2 1-1.6 2.2zM223.788 45.518c0 3.2-.4 7.3-.9 9.1-.5 1.7-.6 3.2-.1 3.2.4 0 1.1-1.7 1.4-3.8 1.6-11 1.7-13 .7-13.6-.8-.5-1.1 1.1-1.1 5.1zM187.988 38.818c0 1.4.4 3.6.8 5 .8 2.4.8 2.4.8-.5 0-1.7-.3-3.9-.8-5-.8-1.8-.9-1.8-.8.5zM197.588 59.818c1.8 1.7 3.8 3 4.4 3 .7 0-.3-1.3-2.2-3-4.6-3.8-6.5-3.8-2.2 0zM130.788 58.118c0 4.1.7 4.9 3.2 3.6 2.8-1.5 2.1-6.3-.9-6.7-2-.3-2.3.1-2.3 3.1zM168.788 61.318c-1 1.1-1 1.9-.2 2.7 1.5 1.5 4.4.2 4-1.9-.4-2.3-2.2-2.7-3.8-.8zM155.788 83.718c0 3.4 2.2 7.1 4.2 7.1s5.4-6.3 4.3-8c-1.2-2-3.5-1-3.5 1.6 0 1.5-.4 2.3-1 1.9-.6-.4-.9-1.4-.8-2.3.2-.9-.5-1.8-1.4-2-1.3-.2-1.8.3-1.8 1.7zM165.788 86.318c0 3.3.4 4.5 1.5 4.5s1.5-1.2 1.5-4.5-.4-4.5-1.5-4.5-1.5 1.2-1.5 4.5zM171.488 86.418l-1.7 4.6 2.8-.5c1.5-.3 4.5.1 6.7.8 4.7 1.7 5.5 1 5.5-5.3 0-3.6-.3-4.3-1.7-4-1.3.3-1.7 1.2-1.5 3.1.2 1.5-.2 3.5-.7 4.5-.8 1.5-1.1 1.3-2-1.3-2.8-7.7-5-8.3-7.4-1.9zM186.688 82.318s-.2 1.9-.4 4.2c-.3 4.3-.3 4.3 3.1 4.3 1.9 0 3.4-.5 3.4-1 0-.6-.7-1-1.5-1-2.1 0-1.9-2 .3-2.1 1.4 0 1.4-.2-.3-.9s-1.7-.9-.2-.9c.9-.1 1.7-.7 1.7-1.5s-1.1-1.3-3-1.2c-1.6.1-3 .1-3.1.1zM195.888 82.818c-.8.4-1.2 1.7-.8 2.9.3 1.2.1 2.3-.4 2.6-.9.6-.1 3.5 1 3.5 1.8-.1 3.3-2.1 3.5-4.9.2-3.5-1.3-5.4-3.3-4.1zM225.088 83.218c-.3.4-.1 1.1.5 1.5.6.3 1.2 2 1.4 3.6.4 4.3 3.3 4.1 3.2-.3-.1-1.7.2-3.2.7-3.2.5 0 .9-.6.9-1.3 0-1.4-5.9-1.7-6.7-.3zM258.288 83.418c-1.1 1.2-1.3 2-.6 2.7.7.7.7 1.5-.1 2.4-1.4 1.8.2 3.6 2.5 2.8 1.1-.5 1.6-1.9 1.5-4.6 0-4.6-1-5.6-3.3-3.3zM265.088 82.518c-1.9.7-1.7 9.3.2 9.3.8 0 1.5-.8 1.6-1.8 0-1.1.2-1.2.6-.4.4 1 .8 1 1.9.1 1.1-.9 1.4-.8 1.4.5 0 .9.7 1.6 1.5 1.6 1.1 0 1.5-1.2 1.5-4.5 0-3.7-.3-4.5-1.9-4.5-1 0-2.2.8-2.6 1.7-.6 1.6-.7 1.6-1.8-.3-.7-1.2-1.8-1.9-2.4-1.7zM276.788 83.818c-1.1 1.1-2 2.4-2 3 0 1.5 3.8 5 5.3 5 1.8 0 4.7-3.2 4.7-5.3 0-1.5-3.5-4.7-5.2-4.7-.5 0-1.7.9-2.8 2zm4.6 2.1c1 1.7-1.3 3.6-2.7 2.2-1.2-1.2-.4-3.3 1.1-3.3.5 0 1.2.5 1.6 1.1zM232.788 86.218c0 4 2.1 6 5.4 5.2 1.9-.5 2.5-1.3 2.8-4.6.3-3.3 0-4-1.4-4-1.3 0-1.8.8-1.8 3.1 0 1.8-.4 2.8-1 2.4-.6-.3-.7-1.7-.4-3.1.5-2 .2-2.4-1.5-2.4s-2.1.6-2.1 3.4zM242.788 87.218c0 3.4.4 4.6 1.5 4.6.8 0 1.5-.8 1.5-1.8.1-1.6.1-1.6 1.1 0 1.9 3.3 3.5 2.1 3.5-2.5-.1-4.1-.2-4.2-3.8-4.5l-3.8-.3v4.5zM251.988 87.018c.2 3 .8 4.3 1.8 4.3s1.6-1.3 1.8-4.3c.3-3.7.1-4.2-1.8-4.2-1.9 0-2.1.5-1.8 4.2z"></path>
    </g>
  </symbol>
</svg>