<svg xmlns="http://www.w3.org/2000/svg" width="1170" height="1170" version="1.0"><ellipse cx="584.99998" cy="585.00102" fill="#fff" stroke="#fff" rx="585" ry="585.00104"/><g class="layer"><path fill="#15ed18" stroke="#000" d="M576.50127 657.99999h-3.23c-1.09 0-4.97-7-2.87 0 2.1 7-1.74 0-2.5 0h-5.48c-.92 0-1.61.01-2.61 0-.82-.01-1.66.02-2.63-.29-.87-.27-1.66-1.04-2.06-1.53-.5-.62-1.45-1.15-2.46-1.19-.76-.03-1.67 0-2.58 0-.91 0-1.78.05-2.54-.43-.67-.42-1.4-.57-2.44-.57h-2.61c-1.04 0-1.81.01-2.77 0-.75-.01-1.56-.03-2.55-.28-.92-.24-1.85-.58-2.64-.66-.82-.08-1.88-.06-2.59-.06-.8 0-1.84.02-2.78 0-.85-.02-1.77-.34-2.38-.57-1.03-.4-1.67-.35-2.66-.49-.68-.09-1.88-.49-2.38-.79-.72-.43-1.67-.96-2.48-1.08-.77-.11-1.97-.07-2.89-.07-.9 0-1.72-.03-2.67-.28-.76-.2-1.54-.48-2.55-.63-.68-.1-1.85-.07-2.63-.09-.79-.02-1.72-.16-2.55-.5-.83-.33-1.75-.48-2.49-.5-1.03-.02-1.8.01-2.71 0-.97-.02-1.84-.22-2.55-.43-.75-.22-1.78-.53-2.75-.57-.76-.03-1.65.02-2.52 0-.98-.02-1.81-.44-2.33-.86-.62-.49-1.56-1.15-2.4-1.5-.59-.25-1.92-.64-2.64-.83-.73-.2-1.45-.38-2.15-.52-1.19-.23-2.11-.23-3.09-.29-.77-.05-1.7-.46-2.4-.71-.87-.31-1.99-.61-2.54-.85-.64-.28-1.31-.61-2.61-1.26-.56-.28-1.31-.66-2.02-.97-.99-.42-1.79-.71-2.55-.92-1.09-.29-1.97-.29-2.87-.29-.79 0-1.84.3-2.66-.22-.74-.47-1.42-1.1-1.9-1.49-.76-.62-1.52-1.31-2.14-1.64-.77-.41-1.81-.53-2.54-.7-.93-.22-1.82-.83-2.48-.91-1-.12-1.72-.28-2.34-.75-.78-.58-1.63-.5-2.47-.95-.69-.37-1.37-.87-2.11-1.34-1.07-.68-1.75-1.05-2.39-1.32-.83-.35-1.88-.64-2.65-.68-.9-.05-1.68-.24-2.37-.72-.74-.5-1.98.05-2.54-.45-.65-.59-.66-1.71-1.26-2-.81-.38-1.55-.86-2.35-1.35-.76-.47-1.68-.93-2.2-1.37-.81-.69-1.14-1.58-1.97-1.95-.81-.35-1.82-.03-2.72-.46-.67-.32-1.57-.91-2.07-1.14-.84-.38-1.74-.9-2.33-1.35-.61-.47-1.15-1.05-2.4-1.9-.58-.39-1.16-.7-1.99-.97-1.03-.34-2.11-.1-2.85-.53-.81-.47-1.36-.74-2.28-.83-.9-.09-1.5-.64-2.09-1.48-.48-.68-1.1-1.4-1.81-1.75-.75-.37-1.82-.6-2.52-.71-.89-.14-1.5-.74-2.32-1.26-.65-.41-1.51-.71-2.22-1.34-.75-.65-1.11-1.24-1.61-1.69-.94-.87-1.56-1.08-2.36-1.57-.81-.49-1.49-1.2-1.93-1.67-.62-.67-1.61-1.42-2.42-1.51-.99-.1-1.82.1-2.72-.3-.7-.31-1.36-.93-2.09-1.31-.98-.52-1.61-.8-2.25-1.16-.97-.55-1.77-1.07-2.32-1.42-1.06-.66-1.75-1.1-2.38-1.38-.94-.42-1.67-.45-2.62-.73-.77-.23-1.59-.63-2.31-1.25-.75-.65-1.11-1.24-1.61-1.69-.94-.87-1.55-1.13-2.48-1.46-.99-.35-1.72-.51-2.46-.71-.75-.2-1.5-.38-2.89-.8-.65-.2-1.3-.39-2.49-.97-.61-.29-1.47-.82-1.99-1.18-.89-.61-1.55-1.29-2.42-1.63-.88-.34-1.56-.6-2.57-.9-.76-.23-1.69-.47-2.27-.77-.94-.49-1.71-1-2.23-1.35-.76-.51-1.64-1.34-2.32-1.71-.78-.44-1.69-.56-2.41-.9-1-.47-1.62-.79-2.3-1.2-.83-.5-1.46-.95-2.14-1.45-.7-.52-1.39-1.04-2.31-1.82-.54-.46-1.25-1.12-1.73-1.52-.98-.82-1.54-1.19-2.31-1.74-.87-.63-1.48-1.19-2.34-1.66-.65-.35-1.52-.55-2.33-1.33-.61-.59-.75-1.21-1.22-1.9-.69-1.03-1.4-1.39-2.45-1.93-.63-.32-1.32-.65-1.98-1.04-.64-.38-1.64-1.18-2.14-1.77-.72-.84-1.16-1.33-1.89-1.66-.98-.44-1.87-.63-2.47-1.18-.75-.7-1.19-1.19-1.71-1.68-.79-.74-1.54-1.38-2.23-1.83-.75-.49-1.59-1.12-2.41-1.67-.64-.43-1.49-.44-2.29-1.02-.68-.5-.58-1.47-1.34-2.06-.64-.49-1.08-1.26-1.45-1.89-.51-.86-1.26-1.53-1.74-2.02-.66-.68-1.34-1.32-2-2.01-.57-.59-.95-1.6-1.71-1.95-.76-.35-1.57-.74-1.99-1.46-.45-.77-.83-1.64-1.12-2.11-.7-1.15-1.19-1.79-1.71-2.49-.26-.35-.78-1.05-1.56-1.96-.68-.79-1.14-1.26-2.09-2.21-.51-.52-1.05-1.05-1.57-1.57-.49-.49-1.51-1.41-1.95-2.07-.48-.7-.68-1.48-1.12-2.25-.47-.81-1.19-1.5-1.71-1.95-.53-.46-1.57-1.41-2.02-1.95-.44-.53-.98-1.36-1.58-2.36-.39-.64-1.04-1.53-1.53-1.93-.63-.52-1.21-1.41-1.4-2.1-.26-.92-.82-1.5-1.34-2.49-.29-.55-.5-1.57-.64-2.36-.17-1.01-.42-1.86-1.14-2.63-.44-.47-1.26-.91-1.81-1.71-.46-.67-.7-1.52-1.12-2.54-.29-.69-.69-1.53-1.1-2.32-.42-.81-.95-1.61-1.45-2.2-.51-.58-1.38-1.34-1.83-1.93-.59-.76-.84-1.49-1.12-2.34-.21-.63-.49-1.67-.81-2.76-.22-.73-.41-1.45-.91-2.34-.46-.82-.91-1.24-1.68-2.21-.41-.51-.97-1.32-1.51-2.06-.59-.81-1.04-1.51-1.51-2.27s-1.29-1.08-1.74-2.04c-.3-.66-.12-1.51-.53-2.49-.3-.72-1.17-1.36-1.51-1.94-.59-.99-.79-1.77-1.03-2.7-.21-.79-.76-1.5-1.35-1.97-.83-.65-1.35-1.33-1.65-2.2-.29-.84-.71-1.54-1-2.5-.2-.66-.08-1.47-.39-2.75-.17-.69-.62-1.48-1.26-2.04-.68-.6-1.54-1.19-2.11-1.89-.4-.5-.93-1.3-1.38-2.07-.41-.7-.78-1.43-1.34-2.56-.33-.67-.69-1.37-1.03-2.11-.5-1.08-.77-1.76-1.02-2.39-.33-.84-.89-1.85-1.28-2.55-.43-.77-.84-1.55-1.19-2.48-.3-.78-.64-1.52-1.32-1.85-.88-.42-1.25-1.27-1.65-1.96-.45-.77-.67-1.54-1-2.26-.45-.98-.94-1.64-1.19-2.61-.21-.83-.57-1.85-.88-2.37-.47-.79-1.15-1.62-1.62-2.31-.35-.51-.73-1.53-.92-2.17-.31-1.01-.6-1.98-.9-2.8-.26-.73-.55-1.68-.66-2.47-.12-.88-.17-1.54-.49-2.56-.23-.74-.57-1.46-1.07-2.51-.45-.93-.86-1.7-1.18-2.42-.43-.96-.7-1.78-.9-2.33-.39-1.06-.68-1.78-1.04-2.45-.5-.96-1.01-1.73-1.36-2.25-.51-.76-1.27-1.69-1.7-2.27-.65-.88-.92-1.49-1.3-2.42-.32-.78-.61-1.62-.89-2.15-.54-1.03-1.15-1.66-1.63-2.37-.65-.97-.83-1.54-1.18-2.31-.48-1.05-1-1.68-1.3-2.53-.34-.94-.59-1.65-.92-2.6-.26-.76-.81-1.53-1.27-2.13-.68-.9-.97-1.42-1.27-2.25-.29-.8-.44-1.82-.57-2.73-.13-.94-.34-1.72-.55-2.55-.27-1.06-.35-1.78-.48-2.68-.14-.97-.38-1.77-.52-2.32-.33-1.3-.36-2.01-.54-2.68-.26-.99-.75-1.78-1.08-2.32-.64-1.06-1.11-1.75-1.37-2.49-.37-1.05-.37-1.71-.45-2.76-.06-.73-.14-1.82-.29-2.49-.2-.95-.51-1.8-.91-2.8-.28-.69-.55-1.36-.72-2.37-.13-.81-.16-1.67-.65-2.63-.38-.74-.85-1.16-1.41-2.33-.31-.64-.5-1.36-.72-2.05-.4-1.26-.72-2.06-1-2.87-.32-.93-.5-1.69-.71-2.52-.22-.87-.3-1.33-.76-2.58-.28-.77-.67-1.44-1.12-2.37-.5-1.03-.64-1.74-.76-2.42-.22-1.23-.39-1.77-.6-2.59-.25-1.03-.27-1.95-.52-2.95-.2-.81-.67-1.49-.81-2.48-.12-.81-.02-1.72-.02-2.69v-26.59c0-.55.03-1.79-.04-2.46-.12-1.2-.4-2-.54-2.55-.27-1.06-.4-2-.42-2.68-.02-.97 0-1.77 0-2.59 0-1.27.1-1.98-.33-2.95-.29-.65-1.08-1.34-1.42-2.2-.32-.78-.24-1.49-.24-2.48v-2.87c0-.71.01-1.78 0-2.42-.01-1.03.02-1.74-.22-2.99-.15-.79-.49-1.48-.66-2.46-.14-.8-.12-1.63-.12-2.66v-2.61c0-.82.02-1.63 0-2.63-.02-.91-.15-1.85-.35-2.64-.21-.83-.51-1.88-.59-2.59-.1-.9-.06-1.87-.06-2.68v-8.08c0-.86-.12-1.74.22-2.67.25-.69.69-1.51.8-2.27.18-1.18.34-1.7.55-2.53.27-1.06.36-2.01.54-2.68.26-.99.75-1.76 1.18-2.54.48-.86.58-1.6.73-2.53.15-.99.61-1.67.81-2.48.2-.8.22-1.69.45-2.68.19-.8.53-1.53.68-2.65.12-.87.34-1.72.68-2.43.41-.86.38-1.69.8-2.44.49-.88.97-1.22 1.54-2.22.44-.78.7-1.63 1.02-2.41.38-.93.73-1.68.97-2.54.26-.94.52-1.63.9-2.6.29-.74 1.22-.81 1.95-1.31.75-.51 1.11-1.18 1.34-2.05.24-.92.41-1.71 1.13-2.5.57-.62 1.16-1.25 1.73-1.69.83-.63 1.4-1.27 1.69-2 .38-.93.69-1.77 1.09-2.45.45-.77.65-1.57 1.08-2.26.52-.85 1.33-1.28 2.09-1.87.71-.54.94-1.45 1.31-2.38.27-.68 1.04-1.37 1.67-1.87.65-.52 1.45-.33 2.4-.66.77-.26 1.26-.96 1.75-1.65.53-.77.66-1.66 1.55-2.17.71-.41 1.58-.71 2.23-1.39.56-.58 1.14-1.17 1.62-1.8.5-.65.81-1.71 1.52-1.96.93-.33 1.66-.44 2.46-1.02.64-.47 1.18-.98 2-1.28.88-.32 1.97-.47 2.39-1.16.46-.74.74-1.45 1.64-1.58.82-.12 1.63-.64 2.46-.86.8-.21 1.71-.2 2.54-.62.79-.4 1.67-.34 2.59-.5.84-.15 1.24-.97 2.19-1 .86-.03 1.79.14 2.53-.33.78-.5 1.12-1.49 1.97-1.66.82-.16 1.85 0 2.55 0 1.02 0 2 .12 2.75-.22.71-.32 1.55-.75 2.42-.78.96-.03 1.88 0 2.79 0h13.28c.91 0 1.84-.04 2.74.17.68.15 1.4.48 2.52.71.82.17 1.66.12 2.63.12.86 0 1.99-.19 2.43.57.38.64.47 1.63 1.17 2.15.68.51 1.76.19 2.43.37 1.02.28 1.51 1.11 2.18 1.56.77.5 1.64.67 2.31 1.07.76.45 1.68 1.1 2.32 1.65.7.61 1.29 1.26 1.99 1.74.66.45 1.54 1.05 2.04 1.71.46.6 1.22 1.18 1.69 1.89.51.78 1.28 1.38 1.78 1.72.78.52 1.38 1.11 1.95 1.83.57.73 1.23 1.57 1.67 2.21.55.8.98 1.47 1.73 1.53 1.05.09 1.56.63 1.87 1.31.37.83 1.31 1.25 2.11 1.54.8.29 1.85.33 2.42.78.78.61 1.4 1.3 2.17 1.38.89.1 1.76 0 2.72 0 .92 0 2-.15 2.44.57.39.64.94 1.38 1.6 1.43 1.03.07 1.53.82 2.28 1 .89.21 1.54.79 2.2 1 .91.29 1.55.86 2.2 1.57.5.54.99 1.35 1.44 2.13.43.76.27 1.86 1.07 2.26.59.3 1.6.72 1.93 1.4.41.85.72 1.8 1.08 2.45.44.8.99 1.37 1.3 2.22.3.82 1.16 1.29 1.74 2.08.46.62.51 1.67.76 2.4.26.74.74 1.72 1.28 2.3.58.63 1.52 1.07 2.2 1.2.98.2 1.65.65 2.1 1.54.34.68.47 1.47.82 2.49.31.91 1.01 1.33 1.08 2.29.06.82.62 1.37 1.29 1.73.78.42.85 1.4 1.35 2 .55.67.61 1.72.87 2.43.25.68 1.19 1.35 1.47 2.13.3.86-.12 1.9.08 2.56.31 1.02 1.24 1.34 1.69 2.15.37.66.39 1.85.6 2.63.15.55.43 1.37.84 2.36.38.92.79 1.85 1.1 2.63.21.53.48 1.38 1.34 2.24.58.58 1.28 1.12 1.35 2.14.05.68.27 1.63.65 2.37.39.78.45 1.72.93 2.37.45.6.45 1.56.78 2.53.25.76.62 1.65.65 2.57.03.83-.21 1.88.11 2.53.38.76 1.55.98 1.84 1.83.32.91.01 1.86.39 2.73.3.67.63 1.59.65 2.35.02.99-.31 1.8.01 2.75.26.77.99 1.34 1.21 2.19.18.71.22 1.53.73 2.64.36.77 1.25.76 2.03 1.32.65.46.97 1.15 1.03 2.15.05.79.7 1.44 1.08 2.15.4.75.82 1.74.88 2.45.06.74.03 1.78.04 2.63.01.95.11 1.75.57 2.52.51.85 1.19 1.58 1.36 2.39.15.71.07 1.73.07 2.75v2.64c0 .91.06 1.71.35 2.47.34.87.49 1.72.65 2.65.16.93.8 1.56.94 2.35.15.85 0 1.86.41 2.65.44.85.56 1.59.67 2.53.08.7.92 1.46 1.41 2.06.57.69.55 1.54.85 2.51.24.78.67 1.71.71 2.49.05.95 0 1.72 0 2.72v5.4c0 .98.37 1.43.88 2.22.48.75.12 1.59.12 2.55 0 .73-.06 1.9.02 2.73.08.84.43 1.76.63 2.55.26 1.02.33 1.73.35 2.46.03 1.13-.03 1.8.08 2.84.07.69.34 1.62.78 2.39.42.73.96 1.67 1.08 2.48.11.77.07 1.81.07 2.79 0 .76-.37 1.78.17 2.67.43.71.51 1.49 1.05 2.21.48.64.78 1.29.78 2.12 0 .98-.03 1.89.54 2.5.67.72 1.51.98 1.97 1.47.69.72.99 1.54 1.2 2.35.31 1.21.23 1.89.51 2.88.23.82.59 1.39 1.07 2.4.36.74.67 1.66.7 2.74.02.67-.15 1.52.44 2.52.42.71 1.38 1.1 1.55 1.96.18.94.01 1.69.01 2.42.01 1.1.39 1.91.72 2.65.39.89.28 1.63.28 2.7 0 .91.04 1.78.5 2.43.47.67.49 1.5.5 2.46.01.94.16 1.86.35 2.53.21.75.33 1.94.76 2.69.42.74 1.55.99 1.85 1.83.32.91-.1 1.72.33 2.59.37.77 1.24 1.25 1.55 2.22.21.65.12 1.69.39 2.52.26.79.61 1.65.89 2.55.26.82.77 1.38 1.41 2.2.61.78.98 1.36 1.36 2.38.32.84 1.03 1.34 1.11 2.21.09.93.23 1.78.59 2.41.49.88.28 1.75.5 2.57.23.86 1.23 1.28 1.76 2.03.5.71.9 1.53 1.12 2.45.16.68.52 1.53.93 2.45.3.67.76 1.51 1.04 2.38.25.79.97 1.05 1.75 1.68.55.45.35 1.56.85 2.35.53.83.98 1.5 1.28 2.08.51.99.76 1.63 1.52 2.38.62.61 1.27.94 1.79 1.79.43.71.66 1.56 1.09 2.55.29.67.79 1.69 1.1 2.29.43.81 1.01 1.6 1.51 2.19.61.73 1.13 1.58 1.19 2.53.04.68.2 1.67.61 2.3.56.88 1.02 1.6 1.22 2.54.17.78.12 1.62.33 2.67.15.72.56 1.59 1.15 2.37.48.62 1.07 1.16 1.66 2 .52.75.62 1.74 1.07 2.44.47.71.72 1.48 1.23 2.19.49.69 1.14 1.3 1.76 1.67.93.55 1.8.86 2.3 1.31.72.65 1.05 1.42 1.3 2.18.38 1.17.84 1.77 1.51 2.03.89.34 1.54 1.03 1.77 1.83.19.67.07 1.49.44 2.69.2.66.7 1.68 1.05 2.24.43.68 1.55.87 2.35 1.44.65.47 1.46.9 1.89 1.48.52.72.54 1.85 1 2.43.56.72 1.59.72 2.3 1.3.76.62 1.25 1.14 2.03 1.66.66.44 1.55.68 2.37 1.01.83.33 1.21 1.1 1.85 2 .42.6.75 1.44 1.02 2.43.2.73.53 1.56 1.11 2.29.61.77 1.19 1.14 1.66 1.62.91.92 1.16 1.52 1.66 2.29.63.96 1.35 1.46 1.85 1.74.73.41 1.72 1.15 2.08 1.73.59.95.76 1.89 1.42 2.46.64.55 1.72.58 2.29 1.04.81.64 1.11 1.49 1.79 2.01.61.47 1.57.48 1.94 1.28.36.79 1.17.95 1.96 1.5.67.47 1.43.93 2.12 1.6.54.53 1.22 1.22 1.73 1.73l1.97 1.97c.59.6 1.05 1.42 1.37 2.37.23.68.66 1.42 1.49 2.08.49.39 1.48.94 2.04 1.46.73.67 1.65.95 2.18 1.74.43.63.53 1.58 1.14 2.04.91.69 1.59 1.1 2.18 1.72.52.54 1.05 1.49 1.56 2.15.51.67 1.26 1.1 2.08 1.65.66.45 1.57.96 2.17 1.5.56.51 1.32.95 2 1.5.83.67 1.48.98 2.4 1 .9.02 1.78-.13 2.58.02.95.18 1.46.96 2.33.98 1.02.02 1.7 0 2.44 0 1.11 0 1.94.06 2.75.5s1.83.49 2.51.5c.74.02 1.95.09 2.57.64.64.56.85 1.44 1.59 2.19.59.6 1.37.82 2.31 1.17.84.31 1.34.96 1.72 1.77.34.72.57 1.57 1.45 2.42.47.45 1.45 1.04 2.1 1.51.72.53 1.48.9 2.25 1.47.61.46 1.34 1.14 1.83 1.95.45.73 1.08 1.27 1.59 1.86.56.64 1.26 1.02 2.06 1.59.55.39 1.36 1.08 2.11 1.45.82.4 1.46 1.14 2.08 1.59.82.58 1.61.76 2.32 1.16.9.5 1.29 1.13 1.97 1.76.74.67 1.52.98 2.26 1.2 1.09.32 1.94.43 2.6.72.78.34 1.74.9 2.51 1.21.88.35 1.36.85 1.71 1.65.32.75 1.36.69 2.27.71.85.02 1.83.24 2.37.7.76.64 1.34 1.49 1.94 1.86.78.48 1.81.41 2.48 1.01.58.52 1.05 1.58 1.56 2.06.82.76 1.34 1.03 2.11 1.59.53.39 1.54 1.18 2.17 1.77.56.53 1.21 1.38 1.93 1.73.87.43 1.81.54 2.28 1.29.43.67 1.15 1.33 1.68 1.84.61.58 1.31 1.18 2.1 1.76.52.38 1.26.88 2.38 1.35.76.31 1.42.75 2.32 1.01.85.25 1.6.75 2.04 1.4.52.76 1.12 1.43 1.72 2.07.49.53 1.07 1.35 1.61 2.1.38.53 1.18 1.56 1.57 2.02.69.8 1.23 1.58 1.49 2.35s.75 1.61.9 2.6c.12.81.02 1.72.02 2.69v2.53c0 .9-.04 1.87.44 2.63.48.74 1.22 1.1 1.52 2.16.25.89.04 1.83.04 2.49v2.89c0 .79-.03 1.69.02 2.66.04.8.26 1.8.48 2.48.22.68-6.62-6.24.53 2.7 7.15 8.94.91 1.51.97 2.4.06.9 0 1.66 0 2.55v2.75c0 .91.02 1.57 0 2.61-.02.78-.14 1.83-.35 2.53-.26.86-.43 1.89-.67 2.59-.31.92-.99 1.54-1.83 1.85-.79.29-1.38.84-2.25 1.03-.79.17-1.26.94-2.22 1-.66.04-1.37.62-1.73 1.29-.42.78-1.36.8-2 1.35-.71.61-1.31 1.08-2.1 1.38-.84.32-1 1.33-1.37 1.95-.49.84-1.49.93-2.24 1.08-.92.18-1.65.44-2.6.92-.68.35-1.32.71-2.13 1.05-.74.31-1.39.96-2.12.98-.99.03-1.95.1-2.34.85-.43.85-1.23 1.08-1.88 1.16-.96.11-1.54.96-2.39.99-.9.03-1.69 0-2.63 0h-5.34c-.94 0-1.96-.32-2.66.17-.72.5-1.33.83-2.17.83-.98 0-1.8-.07-2.67.04-.88.11-1.57.41-2.32.61-1.18.32-2.01.35-2.81.35h-21.52c-.68 0-1.69.16-2.48-.09-.81-.26-1.74-.8-2.45-.89-.74-.09-1.79-.29-2.5-.73-.93-.57-1.48-.92-2.42-1.13-.77-.17-1.9-.12-2.69-.61-.7-.43-1.22-1.43-1.96-1.55-.94-.15-1.69-.01-2.85-.01h-5.13c-.9 0-1.88-.01-2.74-.22-.71-.18-1.43-.51-2.49-.69-.93-.16-1.74-.09-2.72-.09h-5.25c-.98 0-1.78-.12-2.6-.57-.77-.43-1.33-1.11-2.11-1.37-.77-.25-1.95-.07-2.24-.76-.38-.91-1.05-1.29-1.81-1.29-.89 0-1.54-.25-2.41-.83-.75-.5-1.51-.6-2.31-1.17-.67-.47-1.55-.71-2.19-1.33-.54-.53-.6-1.62-.98-2.36-.4-.76-.96-1.29-1.92-1.34l-.43-.61"/><path fill="#007f00" stroke="#007f00" d="M218.02127 222.01999c25 1 3-17 30 5s29 149 44 189 67 112 96.98 141.98c29.98 29.98 153.02 99.02 153 99-.02-.02-176.98-53.98-177-54-.02-.02-127.98-149.98-126.98-149.98s-44-190-44-190-1-42 24-41z"/><path fill="#15ed18" stroke="#000" d="M763.02127 1052.01999h-4c-.6 0-1.51-.03-2.4.17-.92.2-1.5.56-2.51.98-.74.3-1.59.54-2.55.68-.52.07-1.65.15-2.25.18-.62.04-2.63.15-3.34.21-.73.06-1.46.13-2.21.2s-1.5.15-2.24.22c-.74.07-2.17.2-3.53.27-.66.03-1.3.05-1.93.06-1.23.02-1.84.02-3.04.02h-29.26c-.79 0-1.61 0-2.44-.01-.85-.01-1.72-.02-2.61-.05-.89-.02-2.69-.11-3.59-.16-.9-.06-1.8-.13-2.69-.2-.89-.07-1.77-.15-2.65-.22-.87-.07-2.59-.19-3.44-.23-.83-.04-1.66-.07-2.46-.09-.79-.02-1.57-.03-2.34-.03h-2.88c-.68 0-1.34 0-2-.02-.66-.02-1.33-.04-2-.09-.69-.05-2.14-.21-2.9-.33-.79-.12-1.59-.26-2.41-.42-.82-.16-1.65-.32-2.47-.49-.81-.16-2.36-.48-3.09-.63-.71-.14-1.38-.27-2.66-.48-.6-.1-1.17-.2-2.77-.38-.49-.05-1.44-.12-2.4-.15-.5-.01-1.56-.02-2.77-.02h-8.01c-.84 0-1.68 0-2.5-.01-.81-.01-1.6-.03-2.38-.06-.76-.04-1.51-.07-2.95-.26-.69-.09-2.01-.37-2.64-.52-.61-.15-1.77-.45-2.32-.58-1.52-.35-2-.42-2.89-.5-.82-.07-1.59-.07-2.66-.07h-23.99c-.81 0-2.07.14-2.74-.28-.77-.49-1.34-.7-2.5-.72-.55-.01-1.5-.04-2.24-.17-1.32-.22-1.8-.39-2.85-.69-.56-.16-1.12-.33-2.3-.66-1.19-.33-1.79-.47-3-.73-.6-.13-1.2-.25-1.8-.38-1.2-.25-2.4-.54-3-.7-1.19-.32-1.77-.5-2.34-.68-1.09-.34-1.61-.51-3-.98-.79-.27-1.5-.44-2.29-.91-.87-.52-1.28-1.19-1.91-1.8-.81-.78-1.58-1.27-1.99-1.55-.87-.58-1.33-.86-2.7-1.76-.45-.3-1.3-.89-1.72-1.18-.8-.55-1.54-1.09-2.63-1.68-.66-.36-1.34-.63-2.03-.89-1.12-.43-1.96-.74-2.84-1.08-.45-.17-1.34-.53-2.62-1.01-.76-.29-1.49-.42-2.25-.92-.92-.6-.89-1.53-1.54-2.21-.71-.74-1.31-.9-2.08-1.56-.56-.48-1.45-1.17-2.06-1.51-.86-.48-1.48-.65-2.48-1.29-.7-.45-1.26-.97-2.16-1.57-.7-.47-.72-1.44-.8-2.17-.08-.72-.52-1.91-.82-2.6-.32-.73-.67-1.45-1.12-2.52-.28-.67-.52-1.34-.77-2.03-.41-1.12-.73-1.96-1.07-2.82-.34-.85-.47-1.28-1.15-2.58-.35-.67-.91-1.54-.99-2.21-.12-1-.04-1.85-.6-2.66-.39-.55-1.24-1.31-1.41-2.14-.17-.84-.02-1.72-.02-2.75v-18.51c0-.94-.37-2.1.11-2.75.48-.65 1.74-.78 1.86-1.55.15-.92.02-1.7.02-2.64 0-1.01-.01-1.82.28-2.66.25-.71.52-1.68.89-2.4.42-.84 1.24-1.39 1.66-2.23.36-.72.63-1.7.89-2.4.31-.84.72-1.81 1.13-2.31.57-.7 1.13-1.49 1.65-2.2.49-.66.3-1.53.54-2.48.23-.89 1.01-1.46 1.39-2.02.64-.93.82-1.79 1.07-2.53.38-1.11.44-1.92.52-2.48.13-.88.4-1.79.84-2.68.31-.61.99-1.79 1.25-2.4.26-.6.56-1.55.72-2.57.11-.71.1-1.47.28-2.58.17-1.1.43-1.78.75-2.41.46-.9.99-1.67 1.38-2.39.42-.79.59-1.77 1.1-2.63.42-.72 1.11-1.1 1.56-2.09.3-.68.48-1.75.68-2.53.28-1.04.25-1.79.54-2.55.32-.84 1.24-1.16 1.72-2.15.34-.7.3-1.69.53-2.47.25-.86.48-1.47 1.12-2.64.32-.59.67-1.15 1.35-2.07.5-.68 1.03-1.66 1.19-2.38.14-.65.56-1.64.98-2.5.3-.62.7-1.62.83-2.34.14-.75.17-1.56.25-2.4.12-1.34.27-2.26.36-2.73.18-.93.39-1.84.87-3.04.3-.74.68-1.4 1.03-2.03.49-.91.91-1.8 1.11-2.41.29-.89.45-1.8.51-2.7.06-.9.01-1.8.04-2.7.04-.93.12-1.59.43-2.62.23-.74.57-1.47.85-2.23.4-1.08.6-2.09.68-2.73.12-.92.23-1.82.45-2.72.21-.9.44-1.8.52-2.7.08-.87.02-1.94.07-2.64.06-.8.76-1.64 1.29-2.21.62-.67.69-1.49.71-2.41.01-1.05 0-1.82 0-2.69v-5.47c0-.76.04-1.58.22-2.65.13-.74.31-1.56.54-2.42.12-.43.55-1.66.89-2.38.47-1 .85-1.59 1.11-2.51.24-.86.19-1.69.24-2.73.05-.94.29-1.74.5-2.49.22-.79.45-1.79.49-2.7.04-.94.01-1.72.01-2.51 0-1.12.02-1.94.44-2.8.36-.75.8-1.24 1.22-2.46.21-.59.31-1.54.38-2.21.12-1.12.23-1.95.38-2.84.15-.9.3-1.78.41-2.62.14-1.12.12-1.8.34-2.73.21-.92.68-1.78.98-2.33.51-.94.83-1.75.85-2.76.01-.69 0-1.77 0-2.49v-7.83c0-1.2-.01-2.1.02-2.7.04-.9.26-2.1.4-2.7.22-.9.44-1.8.52-2.7.08-.9.06-1.5.06-2.7v-4.92c0-.93-.01-2.31 0-3.19.01-.84.02-1.65.17-2.4.21-1.08.54-1.73.98-2.68.28-.61.66-1.5.78-2.4.11-.85.07-1.89.07-2.83 0-.75-.01-1.62.01-2.63.02-.7-.01-1.4.27-2.58.22-.93.65-1.74.71-2.52.07-.9 0-1.76 0-2.75v-5.28c0-1.05-.01-1.75 0-2.73.01-.87.33-1.82.71-2.5.44-.81.82-1.36 1.12-2.58.14-.58.17-1.44.17-2.48 0-.92-.01-1.61 0-2.6.01-.8.15-1.99.42-2.67.39-.99.54-1.66.56-2.44.04-1.05.01-1.97.01-2.73 0-.99-.07-1.98.07-2.73.17-.94.63-1.7.93-2.23.43-.75.92-1.88 1.17-2.85.17-.68.45-1.44.67-2.5.15-.7.17-1.58.87-2.42.52-.62 1.09-1.28 1.23-2.02.16-.83.27-2.03.41-2.63.21-.9.5-2.1.56-2.7.09-.9.07-1.5.09-2.7.01-.92.04-1.58.17-2.27.22-1.18.54-2.05.71-2.52.36-1 .58-1.53 1.28-3.24.25-.61.52-1.24.78-1.88.27-.65.54-1.31.79-1.98.5-1.33.94-2.65 1.12-3.29.18-.63.34-1.26.58-2.48.11-.59.23-1.18.4-2.88.05-.54.11-1.6.13-2.11.03-.97.04-1.89.04-3.11v-2.34c0-1.2.01-2.13.11-2.76.17-1.02.45-1.73.74-2.49.3-.8.64-1.63.91-2.97.09-.46.19-1.39.22-2.32.03-.89.01-2.12.03-2.84.01-.64.13-1.9.42-2.56.37-.85.56-1.66.57-2.64.01-.77 0-1.67 0-2.54v-8.03c0-.73-.01-1.57 0-2.76.01-.92.04-1.58.17-2.27.22-1.18.54-2.05.68-2.51.3-.97.5-1.47.82-3.08.11-.55.23-1.68.27-2.25.09-1.12.08-1.68.23-3.25.05-.49.18-1.42.33-2.27.14-.8.35-1.89.41-2.58.09-.96.08-1.58.09-2.79v-2.27c0-1.17-.01-2.04.04-2.93.05-.9.04-1.35.4-2.56.33-1.1.74-1.71.99-2.34.46-1.18.52-1.8.56-2.7.05-1.2.01-1.8.01-2.74v-2.79c0-.75-.01-1.49 0-2.55.01-.98-.01-1.87.22-2.9.16-.69.61-1.41.76-2.42.14-.98.02-1.75.02-2.67v-2.83c0-.6.02-1.57.11-2.27.17-1.24.32-1.69.59-2.69.14-.52.45-1.56.59-2.08.39-1.45.56-2.3.63-3.06.1-1.04.07-2.06.07-2.78.01-.76.02-1.56.08-2.4.11-1.34.19-1.8.34-2.73.14-.92.32-1.81.45-3.04.08-.73.11-1.4.12-2.34.01-.9 0-1.81 0-2.76 0-1.01-.02-1.73.02-2.46.06-1.08.27-2.07.68-2.88.27-.52.83-1.24 1.12-2.47.16-.68.16-1.42.17-2.15.02-1.4 0-2.05 0-2.98v-18.18c0-1.33 0-2.27.02-3.21.01-.47.03-1.42.2-2.78.11-.87.21-1.3.35-2.15.15-.86.32-2.2.37-3.12.03-.47.05-1.39.06-2.28.01-1.23 0-1.95 0-2.95v-13.08c0-1.3-.01-1.76.01-2.7.02-.98.03-1.49.16-2.52.13-1.08.39-2.2.53-2.77.14-.58.45-1.75.59-2.35.14-.6.47-2.39.53-3 .06-.6.13-1.8.15-2.4.02-.6.02-2.4.02-3v-66.65c0-.87.03-1.76-.01-2.66-.04-.9-.09-1.53-.56-2.7-.25-.62-.68-1.16-1.1-2.4-.29-.88-.31-1.5-.33-2.4-.02-.9 0-1.83 0-2.51v-5.13c0-1.46.01-2.3-.01-3.06-.02-.7-.15-2.07-.27-2.78-.13-.73-.32-1.45-.55-2.78-.1-.56-.16-1.55-.17-2.5v-4.99c0-1.36.01-2.1-.04-2.84-.05-.75-.25-1.85-.66-2.84-.27-.65-.68-1.22-1.05-2.46-.17-.59-.23-1.5-.24-2.7-.01-.6 0-1.5 0-2.4v-5.4c0-.6.02-1.8-.02-2.7-.02-.6-.19-1.8-.4-2.69-.14-.58-.45-1.64-.54-2.59-.06-.68-.04-1.65-.04-2.44 0-1.02.09-2.01-.17-2.75-.29-.85-.86-1.56-1.12-2.14-.53-1.16-.61-1.8-.72-2.76-.08-.7-.2-1.87-.35-2.75-.08-.46-.28-1.44-.4-1.95-.38-1.61-.55-2.16-.89-3.28-.17-.57-.35-1.13-.69-2.24-.17-.54-.64-2.07-.77-2.54-.25-.91-.47-1.78-.6-2.65-.21-1.33-.2-1.8-.27-2.74-.07-.95-.05-1.43-.35-2.81-.19-.89-.52-1.72-.67-2.13-.29-.78-.78-2.22-.89-2.88-.1-.63-.11-1.56-.11-2.76v-5.36c0-.56.01-1.44 0-2.64-.01-.6-.01-1.51-.22-2.7-.11-.6-.42-1.41-.66-2.56-.16-.75-.12-1.63-.12-2.43v-64.04c0-1 .09-1.84 0-2.8-.09-.86-.58-1.65-.85-2.19-.47-.96-.83-2.19-.91-2.66-.16-1-.18-1.53-.22-2.63-.02-.56-.02-2.24-.02-2.78v-13.45c0-.79.04-1.66-.04-2.41-.12-1.18-.33-1.71-.54-2.56-.28-1.18-.36-1.79-.4-2.71-.03-.64-.02-2-.02-2.73v-37.22c0-.96-.03-1.78.06-2.64.11-1.2.31-1.79.52-2.7.28-1.2.31-1.8.45-2.66.12-.78.74-1.68 1.27-2.29.6-.68.67-1.63 1.06-2.5.3-.67.5-1.63.82-2.27.49-.98 1.39-1.31 1.72-2.14.33-.82.56-1.73 1-2.32.6-.8 1.12-1.55 1.46-2.08.65-1.02 1.08-1.67 1.37-2.46.35-.96.12-1.84.36-2.66.3-1.02 1.17-1.39 1.76-1.99.61-.62.91-1.3 1.49-2.25.48-.8.89-1.28 1.35-2.25.37-.79.57-1.65.91-2.51.36-.93.5-1.6 1.14-2.49.45-.63.87-1.08 1.41-2.3.29-.68.49-1.42.77-2.15.41-1.07.76-1.73 1.12-2.34.5-.86 1.08-1.88 1.5-2.5.62-.91 1.21-1.23 1.85-1.85.7-.67 1.02-1.47 1.31-2.01.64-1.2 1.1-1.79 1.6-2.38.51-.61 1.08-1.18 1.82-2.1.47-.59.91-1.18 1.43-2.1.5-.88.84-1.8 1.11-2.36.51-1.08 1.01-1.79 1.55-2.39.64-.7 1.13-1.34 2.15-1.73.63-.24 1.39-.74 1.73-1.42.39-.76 1.5-.9 2.21-1.15.8-.28 1.59-.69 2.28-1.2.63-.47 1.67-1.04 2.34-1.57.68-.54 1.39-.7 2.1-1.22.77-.57 1.33-1.34 2.02-1.54.97-.28 1.74-.71 2.65-.97.69-.19 1.45-.63 1.97-1.23.68-.8 1.44-1.24 2.21-1.98.46-.45.92-1.26 1.71-1.81.67-.47 1.53-.73 2.29-1.19.73-.44 1.2-1.18 2.28-1.66.72-.32 1.81.11 2.55-.34.77-.47 1.28-.97 2.32-1.5.36-.18 1.14-.63 1.99-1.13.43-.26 1.7-1.04 2.46-1.52.68-.43 1.24-.88 2.24-1.35.79-.37 1.65-.57 2.51-.91.8-.32 1.65-.5 2.6-.99.51-.27 1.33-.81 2.23-1.26.59-.3 1.54-.67 2.21-.92 1.12-.42 1.95-.73 2.82-1.06.43-.16 1.24-.51 2.3-.85.92-.29 1.99-.33 2.67-.33.98 0 1.81-.04 2.77-.28.78-.2 1.33-.41 2.53-.59.9-.14 1.52-.09 2.7-.45.62-.19 1.49-.69 2.1-.96 1.18-.52 1.79-.63 2.66-.68 1.07-.07 1.99-.02 2.75-.02.99 0 1.98.03 2.73-.04.93-.09 1.7-.32 2.49-.54 1.12-.31 1.88-.42 2.75-.43h2.73c.78 0 1.85.14 2.53-.11.81-.3 1.33-1.19 2.23-1.64.77-.38 1.79-.24 2.54-.24h16c1.02 0 1.76-.03 2.59.11.9.16 1.79.59 2.39.89.9.44 1.79.8 2.7.93.6.08 1.8.07 2.7.07h5.42c.72 0 1.85-.01 2.63 0 .79.02 1.72.16 2.55.5.83.33 1.51.46 2.32.49 1.18.04 2.07.01 2.66.01h2.86c.9 0 1.39.65 1.77 1.29.43.74 1.42.72 2.53.93.67.12 1.39.3 2.11.54 1.09.37 2.09.89 2.73 1.24.62.34 1.51.87 2.42 1.24.59.24 1.49.51 2.7.68.59.08 1.49.07 2.48.53.72.33 1.37 1.12 2.18 1.45.83.34 1.73.32 2.46.47.84.17 1.74.39 2.2.52 1.37.4 2.21.76 3.02 1.09.74.31 1.72.74 2.54.91.84.16 1.79.03 2.69.28.7.19 1.51.59 2.52.75.83.14 1.73.2 2.61.53.61.23 1.48.74 2.1.99 1.17.47 2.06.54 2.83.57.95.03 1.69.58 2.44.88.64.26 1.63.24 2.84.62.47.15 1.48.57 2.03.8.58.24 1.17.52 2.45 1.02 1.35.53 2.07.77 2.79.99.74.23 1.48.44 2.23.65.75.2 1.49.39 2.23.56 1.43.33 2.12.47 2.79.6 1.28.26 1.89.38 2.48.51 1.12.25 2.17.52 3.12.86.9.31 1.3.51 2.11.81 1.09.4 2.1.63 3.02.69.56.04 1.8-.07 2.58.08.94.18 1.52.76 2.49.91 1 .15 1.86.06 2.72.48.78.38 1.37.77 2.12 1.07.83.34 1.79.61 2.82.86.52.13 1.57.37 2.07.51 1.4.4 2.18.76 2.87 1.1.62.3 1.65.86 2.54.98.87.12 1.68.03 2.53.33.88.31 1.76.66 2.68.72.83.05 1.68.32 2.21.85.81.8 1.45 1.09 2.46 1.15.83.05 1.71.22 2.43.43.79.22 1.83.37 2.7.6.9.23 1.36.9 2.01 1.5.74.67 1.54.99 2.35 1.2.98.26 1.86.08 2.8.29.77.17.74 1.37 1.46 1.83.67.43 1.83.1 2.75.39.7.22 1.67.61 2.34.84.91.32 1.6.8 2.12 1.12 1.05.65 1.76 1.06 2.44 1.44.94.54 1.72 1.03 2.25 1.35.75.46 1.73.86 2.69 1.19.67.23 1.8.42 2.39.89.7.57.93 1.66 1.5 1.83.86.25 1.8.59 2.28 1.28.49.7 1.1 1.24 2.09 1.81.51.3 1.39.54 2.25 1.19.74.56 1.16 1.38 1.98 1.72.74.31 1.32.9 1.71 1.76.33.73.97 1.31 1.64 1.87.53.44 1.12 1.24 1.5 2 .39.79.96 1.81 1.5 2.44.5.57 1.25 1.29 1.75 1.79.73.73 1.33 1.17 1.91 2.08.48.75 1.04 1.31 1.29 2.23.19.72.51 1.8.9 2.25.63.73 1.24 1.1 1.98 1.85s1.15 1.28 1.59 2.06c.52.92 1.09 1.6 1.49 2.34.38.71.67 1.52 1.27 2.09.67.65 1.1 1.33 1.37 2.12.34 1.03.29 2.02.62 2.73.38.82 1.31 1.14 1.72 2.15.31.75.29 1.77.56 2.55.27.79.88 1.64 1.37 2.13.62.62 1 1.42 1.2 2.36.19.93.88 1.61.96 2.31.11.95.1 1.81.59 2.75.26.51.8 1.31 1.1 2.23.29.89.3 1.54.42 2.57.13 1.17.2 1.6.34 2.48.15.9.32 1.78.45 3.01.08.72.12 1.65.12 2.61v2.58c0 .92-.05 1.72.07 2.56.18 1.2.49 1.79.78 2.39.44.9.87 1.79 1.04 2.69.15.83.11 1.78.11 2.72 0 .87-.08 1.74 0 2.63.08.93.52 1.54.83 2.59.24.81.14 1.71.19 2.43.06.79.39 1.84.83 2.49.54.79 1.11 1.62 1.15 2.57.03.72 0 1.85 0 2.64v32.1c0 .72-.02 1.36 0 2.61.01.83.17 1.67.35 2.35.22.81.51 1.98.59 2.89.05.6.06 1.5.06 2.7v31.89c0 .82.05 1.68 0 2.62-.04.86-.29 1.65-.5 2.42-.23.86-.43 2.06-.46 2.66-.05.9-.04 2.1-.04 2.7 0 .9.01 2.1 0 2.7-.02.88-.06 1.76-.57 2.71-.36.69-1.1 1.11-1.39 2.19-.26.95-.04 1.67-.04 2.75v10.6c0 .84.01 1.84-.02 2.67-.03.58-.19 1.78-.4 2.68-.14.6-.43 1.8-.49 2.4-.09.86-.09 2.07-.09 2.75v2.7c0 1.03.08 1.7 0 2.78-.06.81-1.06.86-1.67 1.5-.62.66-.24 1.8-.42 2.55-.23.98-.74 1.61-.88 2.5-.15.94-.04 1.88-.04 2.67v2.78c0 .79.17 1.69-.11 2.51-.29.84-1.25 1.15-1.72 2.14-.3.64-.16 1.76-.17 2.68-.01.83-.21 1.65-.57 2.46-.38.84-.42 1.62-.43 2.54v2.69c0 .95.04 1.92-.04 2.66-.09.8-.5 1.81-.96 2.44-.41.57-.98 1.54-1 2.53-.01.69.06 1.64-.09 2.49-.14.81-.45 1.54-.63 2.35-.28 1.21-.28 2.02-.28 2.93 0 .92.07 1.75 0 2.73-.06.84-.44 1.56-.85 2.28-.45.79-.97 1.8-1.08 2.49-.17 1.07-.07 1.87-.07 2.73 0 .86.01 1.76 0 2.68-.01.88-.05 1.53-.28 2.52-.19.8-.53 1.53-.68 2.66-.13.98-.04 1.84-.04 2.78v5.08c0 .9.02 2.1-.01 2.7-.04.9-.3 2.11-.56 2.7-.26.61-.8 1.47-1.1 2.4-.29.88-.32 1.76-.33 2.83-.01.7.02 1.53-.35 2.41-.4.96-.64 1.75-.65 2.59-.01.92 0 1.83 0 2.63v2.53c0 1.04-.13 1.92-.71 2.66-.42.54-1.21 1.45-1.29 2.23-.1.94 0 1.63 0 2.62v2.75c0 .72.01 1.76-.04 2.57-.04.58-.25 1.78-.46 2.68-.15.6-.4 1.8-.46 2.7-.04.6-.04 1.8-.04 2.7 0 .6.02 1.5 0 2.7-.01.62-.01 1.28-.33 2.73-.09.41-.37 1.27-.67 2.17-.29.89-.49 1.32-.76 2.56-.23 1.06-.22 1.73-.41 2.94-.1.6-.36 1.49-.55 2.4-.19.9-.24 1.8-.35 2.4-.21 1.21-.64 2.1-.94 2.7-.29.6-.79 1.79-.89 2.4-.14.89-.11 2.1-.12 2.7-.01.9-.05 1.81-.22 2.7-.17.92-.41 1.53-.61 2.87-.11.71-.14 1.46-.16 2.21-.02.74-.01 2.14-.01 2.78 0 .89.12 1.94-.04 2.8-.17.91-.93 1.33-1.39 2.01-.64.94-.56 1.82-.57 2.86-.01.71.01 1.62 0 2.59-.01.81-.02 1.69-.17 2.58-.15.91-.36 1.49-.55 2.4-.24 1.19-.21 1.81-.39 2.7-.25 1.22-.58 1.8-1.04 2.63-.28.5-.81 1.61-.85 2.59-.02.68.11 1.67-.09 2.56-.17.8-.63 1.56-.79 2.54-.14.81-.11 1.68-.12 2.58-.01.89.1 1.8-.33 2.67-.38.76-1.29 1.14-1.59 2.16-.2.66-.07 1.67-.07 2.66 0 .86.08 1.78-.17 2.68-.19.7-.59 1.51-.75 2.52-.14.83-.11 1.45-.53 2.61-.22.61-.78 1.39-1.22 2.37-.37.81-.48 1.67-.69 2.34-.26.79-.79 1.83-1.29 2.54-.48.69-1.07 1.61-1.24 2.41-.12.56-.14 1.45-.4 2.64-.13.62-.46 1.56-.88 2.57-.3.72-.66 1.46-1.01 2.21-.34.74-.82 1.8-1.06 2.46-.23.62-.49 1.47-.71 2.71-.12.68-.36 1.63-.75 2.4-.42.81-1.06 1.69-1.22 2.39-.22.96 0 1.86-.5 2.6-.46.68-.57 1.55-.57 2.24v2.65c0 1.01 0 1.85-.57 2.66-.39.55-1.24 1.31-1.41 2.14-.2 1.01-.01 1.75-.37 2.63-.31.74-.61 1.76-.64 2.53-.04 1.05 0 1.75-.01 2.55-.01 1.04-.32 1.84-.85 2.49-.57.7-1.11 1.56-1.15 2.51-.03.68.01 1.45 0 2.5-.01.92-.07 1.69-.5 2.67-.36.83-.43 1.57-.83 2.67-.19.54-.7 1.35-1.02 1.94-.65 1.18-.92 1.78-1.2 2.62-.31.93-.39 1.75-.45 2.76-.04.69-.61 1.59-1.15 2.18-.57.63-.78 1.6-.9 2.39-.16 1.03-.4 1.69-.67 2.46-.34 1-.61 1.83-.99 2.5-.46.81-.84 1.37-1.27 2.29-.41.88-.7 1.79-.85 2.7-.16.89-.12 1.51-.34 2.4-.3 1.23-.68 1.79-1.02 2.36-.63 1.08-1.11 1.75-1.45 2.57-.37.89-.32 1.63-.37 2.67-.04.78-.28 1.85-.7 2.53-.4.64-1.06 1.44-1.34 2.21-.32.89-.57 1.61-.9 2.49-.35.93-.93 1.55-1.34 2.1-.65.87-.78 1.62-1.06 2.67-.14.53-.39 1.38-.56 2.58-.08.59-.08 1.49-.53 2.48-.34.75-.96 1.4-1.39 2.25-.48.96-.68 1.73-.83 2.12-.3.83-.87 2.17-1.11 2.63-.48.94-.74 1.4-1.28 2.31-.26.44-1.02 1.67-1.49 2.39-.42.64-.99 1.44-1.58 2.26-.54.76-.79 1.74-.91 2.49-.13.8-.51 1.82-1 2.44-.46.58-1.25 1.27-1.73 1.85-.6.71-1.09 1.45-1.42 2.01-.69 1.16-.94 1.78-1.33 2.66-.25.56-.81 1.61-1.33 2.3-.51.69-1.05 1.37-1.41 2.17-.35.77-.54 1.94-.82 2.67-.29.75-1.05 1.31-1.61 2.22-.38.62-.25 1.66-.37 2.34-.19 1.11-.7 1.61-.88 2.59-.13.74-.01 1.55-.09 2.77-.06.8-.62 1.52-1.14 2.12-.7.81-.81 1.6-.84 2.39-.05 1.03.02 1.91-.01 2.93-.02.68-.22 1.56-.43 2.28-.22.79-.47 2.06-.6 2.74-.13.69-.54 1.69-.98 2.48-.42.76-.86 1.72-1.08 2.4-.31.96-.75 1.61-.9 2.62-.12.81.06 1.76-.46 2.48-.57.77-1.36 1.33-1.54 2.06-.26 1.11-.37 1.91-.52 2.44-.33 1.19-.45 2-.5 2.84-.05.86-.47 1.63-1 2.2-.71.77-.92 1.49-.98 2.3-.08 1.18-.01 2.08-.04 2.68-.04.9-.26 2.1-.4 2.69-.21.86-.37 1.91-.6 2.77-.23.9-.9 1.36-1.5 2.01-.67.74-.97 1.56-1.12 2.14-.3 1.18-.31 2.09-.42 2.66-.21 1.08-.66 1.77-1.23 2.57-.55.77-.76 1.55-1.13 2.49-.27.7-.49 1.59-.91 2.51-.32.71-.71 1.2-1.18 2.07-.48.89-.85 1.8-1.11 2.4-.52 1.21-.86 1.8-1.2 2.4-.52.9-1.02 1.8-1.29 2.4-.4.87-.58 1.48-1.21 2.48-.46.73-1.07 1.4-1.51 2.25-.32.62-.55 1.35-.79 2.12-.26.83-.69 2.16-.86 2.63-.34.93-.69 1.86-.86 2.31-.49 1.28-.76 2.04-1.03 2.74-.37.97-.79 1.88-1.11 2.47-.49.9-.9 1.47-1.27 2.7-.18.59-.22 1.51-.41 2.7-.1.6-.35 1.5-.48 2.1-.26 1.19-.31 2.1-.41 2.7-.21 1.21-.49 1.81-.94 2.66-.41.78-.94 1.73-1 2.42-.08.94 0 1.95 0 2.74v5.54c0 .78.07 1.59-.17 2.5-.23.87-.68 1.66-.79 2.35-.12.8-.35 2-.62 2.59-.41.92-.81 1.49-1.26 2.4-.44.9-.67 1.54-.92 2.21-.42 1.12-.73 1.95-1.06 2.84-.17.45-.52 1.33-.85 2.62-.19.76-.26 1.46-.38 2.42-.11.91-.28 1.82-.6 2.71-.22.61-.67 1.51-1.17 2.38-.32.55-.88 1.48-1.16 2.3-.34.99-.71 1.66-.94 2.64-.17.75-.03 1.75-.26 2.57-.21.76-.69 1.55-1.01 2.12-.66 1.18-.95 1.78-1.27 2.65-.28.76-.36 1.79-.88 2.71-.3.53-1.18 1.07-1.55 2.08-.32.87-.08 1.6-.2 2.44-.15 1.01-.43 1.84-.68 2.42-.51 1.22-.9 1.79-1.22 2.4-.47.89-.81 1.79-.96 2.68-.14.8-.4 1.83-.71 2.57-.36.88-.2 1.61-.37 2.64-.17.98-.69 1.63-1 2.16-.5.86-.97 1.75-1.35 2.66-.26.6-.79 1.8-1.11 2.4-.33.6-.88 1.47-1.18 2.4-.29.88-.29 1.5-.42 2.4-.17 1.2-.3 1.81-.68 2.64-.48 1.07-.91 1.47-1.53 2.3-.57.76-.61 1.55-.72 2.48-.11.96-.92 1.47-.99 2.35-.06.83-.3 1.7-.86 2.21-.62.55-1.44 1.26-1.69 1.87-.45 1.13-.41 1.99-.51 2.56-.22 1.2-.49 1.8-.94 2.65-.41.78-.89 1.74-1.08 2.51-.2.8-.44 1.55-.63 2.35-.23.99-.16 1.84-.29 2.93-.09.73-.57 1.51-.99 2.27-.44.79-.85 1.79-.98 2.48-.22 1.16-.3 1.68-.52 2.48-.33 1.19-.48 1.87-.5 2.85-.02.93 0 1.72 0 2.75v4.97c0 1.26.02 1.96-.17 2.63-.3 1.03-.86 1.82-1.12 2.42-.52 1.17-.63 1.78-.68 2.62-.07 1.13-.02 1.89-.02 2.92v37.11c0 1.08.02 1.76-.02 2.73-.04.92-.19 1.82-.4 2.72-.14.6-.42 1.8-.53 2.71-.08.63-.12 1.31-.38 2.42-.2.84-.52 1.72-.82 2.62-.15.44-.55 1.71-.68 2.48-.17.98-.17 1.8-.17 2.76v2.79c0 .77-.02 1.67 0 2.54.02.98.45 1.8.85 2.33.45.61.96 1.57 1.08 2.39.12.86.07 2.06.07 2.65v2.83c0 .94-.01 1.62.01 2.4.02.85.03 1.72.21 2.93.11.73.37 1.72.49 2.34.24 1.2.26 1.8.28 2.7.02 1.2 0 1.79 0 2.63v24.27c0 .98.04 1.75 0 2.65-.04.87-.52 1.68-.83 2.51-.29.8-.49 1.67-1.02 2.22-.57.59-1.05 1.62-1.16 2.4-.16 1.05-.35 1.75-.63 2.55-.32.9-.88 1.33-1.65 1.77-.73.42-.95 1.47-1.54 2.06-.59.59-1.47.73-2 1.4-.52.67-1 1.59-1.73 1.89-.54.22-1.74.41-2.62.53-.81.11-1.71.42-2.3 1.04-.73.77-1.18 1.24-1.98 1.73-.95.58-1.49.91-2.06 1.25-.87.53-1.77.99-2.69 1.37-.62.26-1.28.5-2.31.95-.74.32-1.48.68-2.23 1.03-1.08.49-1.77.76-2.73 1.15-.62.25-1.82.82-2.42 1.15-.6.34-1.49.89-2.4 1.33-.59.28-1.45.63-2.53.85-.7.15-1.69.04-2.55.19-.98.17-1.62.7-2.4 1.13-.53.29-1.75.78-2.55.84-.92.06-1.59.01-2.65.01h-23.46c-1.38 0-2.26.01-3.12-.02-.85-.03-1.72-.12-2.59-.31-.92-.2-1.86-.53-2.33-.69-.95-.33-1.41-.52-2.78-.96-.86-.28-1.72-.5-2.57-.66-.43-.08-1.77-.25-2.69-.3-.9-.05-1.74-.05-2.79-.06h-5.18c-.88 0-1.78.04-2.68-.02-.9-.06-1.81-.29-2.7-.68-.62-.28-1.23-.67-2.26-.96-1.09-.31-1.51-.28-2.39-.35-.99-.08-2.11-.15-2.73-.21-1.34-.12-2.05-.2-2.78-.28-.74-.08-1.5-.15-2.26-.22-1.51-.13-2.26-.17-2.99-.2-.72-.03-1.43-.06-2.81-.07-.66-.01-1.31-.01-2.55-.01h-29.61c-.87 0-1.74.02-2.18.04-.91.04-2.38.18-2.91.25-1.09.14-1.65.22-2.22.29-1.13.15-2.25.27-3.33.34-.52.03-1.53.07-2.47.08-.45.01-2.05 0-2.73 0h-29.63c-.56 0-1.13 0-2.26-.02-.56-.01-1.65-.04-2.69-.15-.96-.1-1.84-.25-2.64-.41-.72-.14-1.92-.37-2.63-.4-1.04-.06-1.95-.02-2.89-.02h-2.72c-.72 0-1.51.02-2.54 0-.92-.02-1.63-.1-2.6-.57-.83-.4-1.31-.77-2.17-1.41-.76-.57-1.62-.97-2.32-1.01-1.07-.07-1.99-.35-2.5-.72-.67-.48-1.25-.86-2.41-1.27-.92-.32-1.43-.4-2.45-.68-.51-.14-1.97-.65-2.4-.88-.81-.43-1.51-.97-2.15-1.51-.92-.77-1.5-1.27-2.09-1.69-.79-.56-1.86-1.07-2.57-1.31-.91-.3-1.66-.65-2.23-1.27-.6-.66-.89-1.38-1.51-2.36-.35-.56-.73-1.15-1.68-2.31-.5-.61-1.05-1.2-1.64-1.73-.58-.52-1.48-1.14-2.08-1.46-.8-.44-1.67-.94-2.07-1.79-.39-.83-1.01-1.39-1.04-2.35-.02-.69-.04-1.56-.17-2.24-.22-1.18-.53-2.02-.68-2.46-.29-.85-.67-1.61-.98-2.83-.22-.87-.17-1.8-.17-2.6v-2.64c0-1.2-.03-1.8.07-2.7.07-.6.48-1.81.79-2.4.47-.91.99-1.79 1.25-2.4.38-.89.64-1.79.77-2.7.12-.87.12-1.69.12-2.73v-13.28c0-.84-.01-1.8 0-2.57.01-.94.31-1.97.85-2.49.56-.53 1.05-1.29 1.2-2.09.18-.96.33-1.79.71-2.53.48-.92 1.31-1.41 2.07-2.18.45-.45.76-1.2 1.15-2.21.31-.81.92-1.41 1.45-2.14.57-.8 1.08-1.39 1.73-1.98.55-.5 1.02-1.29 1.35-1.82.62-.98 1.16-1.8 1.4-2.8.18-.75.09-1.71.09-2.4v-5.47c0-.87.06-1.79.57-2.49.53-.73 1.29-1.47 1.41-2.18.15-.87.02-1.86.02-2.66v-6.31"/><path fill="#007f00" stroke="#007f3f" d="M703.02127 930.01999c-9 74-61 121-61.02 120.98-.02-.02 142.02.02 142.02-.98s-16-132-16.02-132.02c-.02-.02-26.98-40.98-26.98-33.98s-29-28-38 46z"/><path fill="#007f00" stroke="#007f00" d="M817.02127 136.01999c2 0 58 135 41 269s-123 454-123.02 453.98c-.02-.02 51.02 16.02 51.02 16.02s109-312 108.98-312.02c-.02-.02 51.02-254.98 51-255-.02-.02-21.98-137.98-31-162"/><path d="M704.34127 78.62999c-46.94 13.99-88.86 37.69-91.2 51.11-1.35 8-14.42 13.14-40.58 15.99l-20.79 2 19.12 7.42c10.39 4 20.79 10.28 22.8 13.99 3.69 5.71 3.35 7.14-3.36 11.71-4.02 2.86-9.38 5.14-11.73 5.14-7.38 0-9.06 9.71-3.35 18.85 2.68 4.57 5.03 9.71 5.03 11.7 0 5.14-16.77 15.14-25.82 15.14-10.4 0-21.13 4.85-21.13 9.71 0 6.56 12.07 13.13 24.48 13.13 10.06 0 13.08 1.43 17.1 7.71 9.72 16.85 12.74 47.4 5.03 53.68-2.68 2-11.4 5.14-19.78 6.57l-15.09 2.57 16.09 3.71c16.77 3.71 30.85 14.85 34.54 27.41 3.35 11.71-13.08 36.27-32.19 48.26-9.39 5.71-16.77 11.99-16.77 13.71 0 1.99 5.7 3.71 12.75 3.99 6.7.57 15.76 2.29 19.78 4 8.38 3.71 17.77 21.7 17.77 33.69 0 10.57-11.74 23.13-21.46 23.13-12.74 0-12.74 3.72.34 9.71 32.52 15.71 24.14 61.68-11.07 61.68-24.14 0-66.39-25.41-89.53-53.68-8.72-11.14-10.73-16.28-10.73-29.13 0-15.13-.34-15.7-14.42-23.7-19.78-11.42-22.8-17.7-17.44-38.55 5.03-20.84 3.02-26.84-10.73-32.26-19.45-7.43-21.12-30.27-2.68-39.12 5.7-2.57 10.06-6.85 10.06-9.14 0-2.28-8.38-12.56-18.44-22.56-22.47-22.55-25.15-28.55-15.43-33.97 15.09-8.57 10.06-17.71-32.52-56.83-57.01-52.82-82.16-63.67-114.01-49.68-34.54 15.13-68.74 67.67-73.44 112.5-2.01 16.28-1.67 16.85 10.4 25.99 13.41 10.56 15.76 22.84 7.04 35.97-2.68 4-4.69 11.14-5.03 16.28 0 4.85-1.68 9.99-3.35 10.85-2.01.86-3.36 5.14-3.36 8.85 0 6.86.67 7.14 12.75 5.43 19.11-2.57 22.8 2.28 17.43 25.41-4.02 17.99-1.34 30.27 6.71 30.27 1.68 0 5.36 2 8.05 4.57 4.36 3.42 4.69 8.56 3.01 25.41-2.34 23.7-1 26.27 19.45 37.12 7.05 4 13.75 10.56 16.1 16.28 9.72 22.27 18.78 34.26 33.53 43.4 25.82 16.27 31.86 22.84 29.51 33.98-2.01 11.99 2.01 16.27 16.09 16.27 16.43 0 84.5 21.13 132.79 40.83 58.01 23.99 95.9 45.12 98.92 54.83 3.35 11.13-3.35 20.84-14.42 21.98-13.41 1.15-13.08 7.71 2.35 25.13 15.42 17.71 16.76 24.84 5.36 28.56-4.69 1.42-9.72 4.85-11.4 7.71-4.02 6.28-1.67 52.82 2.35 55.1 5.37 2.86-12.41 76.81-23.47 97.09-12.07 21.98-16.43 26.27-52.65 50.83-23.81 15.99-37.55 29.4-37.55 35.97 0 .86 5.7 6.86 12.4 13.42 29.18 27.41 107.64 43.69 212.26 43.98 69.08 0 89.2-2.57 145.19-17.71 41.25-11.13 62.71-24.55 62.71-39.4 0-21.7-25.82-47.69-50.63-51.11-37.22-4.86-46.61-12.57-46.61-37.98 0-14.85 2.01-21.7 17.1-63.96 8.38-23.7 11.06-27.98 18.1-29.41 10.4-2.29 14.09-13.42 8.72-25.99-7.71-18.27-4.36-26.27 14.42-34.26 7.38-3.14 7.71-6.57 3.69-25.7-2.01-10.56-1.34-12.85 9.72-23.7 13.08-13.42 18.78-27.13 18.78-44.83 0-16.56 6.04-32.27 13.42-35.69 11.4-5.14 13.74-12.57 9.72-28.56-4.36-17.99-2.68-24.55 10.73-38.83 9.39-9.99 10.06-12.28 8.05-23.98-4.03-20.85-2.35-31.41 8.38-47.12 10.73-15.7 12.41-23.98 6.71-33.12-2.68-4-1.01-14.28 6.37-40.26 20.12-70.82 36.21-236.72 23.47-243-.67-.28-4.36-2-8.05-3.71-4.69-2.28-6.7-6.28-6.7-12.85 0-8.57 1.34-9.71 9.39-10.56l9.05-.86-5.7-8.57c-3.02-4.57-10.73-10.28-16.77-12.56-6.7-2.86-11.06-6.57-11.06-9.99 0-11.43-84.17-50.83-142.18-66.82-32.19-9.14-53.65-9.14-82.49-.57zm70.76 39.12c44.59 19.41 73.1 44.54 96.9 85.94 19.12 32.84 18.45 34.84 8.05-24.55-6.37-35.12-3.69-39.12 15.43-21.99 28.16 25.13 36.88 50.26 39.23 113.65 3.02 74.24-8.39 145.34-42.59 262.69-25.15 87.66-47.95 155.05-77.46 230.72-28.16 71.96-41.58 96.8-52.98 97.94-7.71 1.14-8.05.57-6.37-15.7 1.01-9.71 15.09-50.54 33.87-99.37 36.21-93.66 46.94-125.07 45.27-132.21-3.69-15.13-143.52 321.24-143.52 345.51 0 11.7 9.05 2.57 26.83-27.99 13.74-23.41 20.12-31.41 25.48-31.98 12.07-1.42 15.09 12.57 17.1 78.81l2.01 61.11-80.14-1.14c-88.86-1.43-108.31-4.57-126.08-19.42-11.4-10-11.74-13.42-1.34-40.26 29.84-78.24 56.33-264.41 65.72-460.86 4.03-79.38 2.69-118.5-5.7-199.88-11.73-113.36 5.37-168.76 62.37-201.88 34.54-20.27 49.63-20.27 97.92.86zm-471.13 78.24c42.25 20.84 61.03 58.25 80.14 159.9 6.04 33.98 22.47 80.24 36.89 104.51 27.16 45.68 56 72.81 110.65 104.79 58.01 33.69 77.8 67.1 47.62 81.09-10.73 4.86-50.3 4-77.8-1.71-32.86-7.14-80.14-27.13-111.66-47.4-110.32-70.53-169-177.61-169.67-308.38-.34-38.84.67-46.55 7.38-63.11 15.09-36.83 40.91-47.11 76.45-29.69z"/><path d="M750.28127 202.05999c-18.44 17.42-27.49 63.39-25.15 125.93 1.68 43.11 8.39 64.24 17.78 57.39 8.71-6.28 12.07-23.13 15.09-79.95 1.67-30.84 5.36-65.68 8.38-77.67 2.68-11.7 4.36-23.7 3.02-26.27-2.69-5.99-12.41-5.71-19.12.57zm136.48 81.95c-4.36 5.71-6.04 19.99-8.39 72.24-3.01 68.25-6.03 94.81-16.76 135.35-7.38 28.84-8.05 38.26-2.35 41.12 11.07 5.71 20.45-21.7 32.86-95.94 14.76-86.52 19.12-131.06 14.09-145.06-5.03-14.27-12.41-17.13-19.45-7.71zm-626.38-50.54c-2.35 3.14 3.69 60.82 7.71 74.82 5.37 19.98 15.09 42.83 17.77 42.83 3.69 0 3.36-38.55-1-64.54-5.03-31.69-18.78-61.1-24.48-53.11zm125.41 292.11c0 4.86 36.21 36.26 63.37 54.54 23.48 15.99 46.61 27.98 53.99 27.98 19.11 0-47.28-54.82-94.22-77.95-16.43-8.28-23.14-9.42-23.14-4.57z"/><path fill="#7fff00" stroke="#7fff00" d="M723.02127 169.01999c-18-18-60 19-66 40s-11 7 0 97 21 88 24 89 32-75 31.98-75.02c-.02-.02 11.02-53.98 21-99s7.02-33.98-10.98-51.98zm-429 74c-8-30 24-19 24-19s18 16 17.98 15.98c-.02-.02 13.02 46.02 4.02 58.02s-59-60-32.02-39.02c26.98 20.98-5.98 14.02-13.98-15.98z"/></g></svg>